<?xml version="1.0" encoding="iso-8859-1"?>
<!-- Generator: Adobe Illustrator 17.0.0, SVG Export Plug-In . SVG Version: 6.00 Build 0)  -->
<!DOCTYPE svg PUBLIC "-//W3C//DTD SVG 1.1//EN" "http://www.w3.org/Graphics/SVG/1.1/DTD/svg11.dtd">
<svg version="1.1" id="Layer_1" xmlns="http://www.w3.org/2000/svg" xmlns:xlink="http://www.w3.org/1999/xlink" x="0px" y="0px"
	 width="780.247px" height="342px" viewBox="0 0 780.247 342" style="enable-background:new 0 0 780.247 342;" xml:space="preserve"
	>
<g>
	<path style="fill:#FBFBFB;" d="M195.329,318.356c0.805,0.701,1.607,1.351,2.514,1.792c36.042,21.65,82.009,18.201,111.387-11.177
		l0,0c29.378-29.378,32.827-75.345,11.177-111.387c-0.442-0.908-1.091-1.71-1.792-2.514c-3.61-4.146-9.911-4.042-13.05-0.053
		c-3.153,4.008-2.48,7.384,0.053,13.05c14.928,28.212,12.616,64.919-9.879,87.414l0,0c-22.495,22.495-59.202,24.807-87.414,9.879
		c-5.665-2.533-9.041-3.206-13.05-0.053C191.286,308.445,191.183,314.746,195.329,318.356z"/>
	<path style="fill:#FBFBFB;" d="M13.147,176.949l155.235,109.072c0,0,7.287,6.016,12.531,0.772
		c2.297-2.297,24.728-24.728,48.328-48.328c0.239-0.239,0.478-0.478,0.717-0.717l8.047-8.047c0.085-0.085,0.169-0.169,0.253-0.253
		c23.77-23.77,46.48-46.48,48.792-48.792c5.244-5.244-0.772-12.531-0.772-12.531L177.208,12.888
		c-10.01-13.585-17.684-3.144-17.684-3.144L10.003,159.265C10.003,159.265-0.439,166.939,13.147,176.949z M168.209,35.715
		l95.281,136.099l-91.416,91.416L35.975,167.95L168.209,35.715z"/>
</g>
<g>
	<path style="fill:#FBFBFB;" d="M414.889,92.688c8.126-1.371,16.123-0.792,23.99,1.742c7.862,2.534,14.701,6.757,20.508,12.669
		c4.749,4.75,8.416,10.269,11.005,16.548c2.584,6.282,3.826,12.802,3.721,19.558c0,5.384-0.873,10.637-2.614,15.757
		c-1.741,5.122-4.195,9.845-7.363,14.173c-5.173,6.968-11.718,12.273-19.635,15.915c-7.922,3.643-16.153,5.199-24.704,4.672
		c-4.435-0.317-8.765-1.212-12.985-2.693c-4.225-1.477-8.156-3.428-11.798-5.859c-3.642-2.427-6.944-5.278-9.9-8.55
		c-2.956-3.271-5.438-6.914-7.443-10.928c-1.901-3.905-3.3-7.969-4.195-12.193c-0.898-4.222-1.242-8.472-1.03-12.747
		c0.21-4.276,0.923-8.498,2.138-12.67c1.212-4.169,2.983-8.1,5.305-11.797c0.738-1.371,1.636-2.745,2.691-4.118h0.16
		c3.904-5.278,8.658-9.553,14.25-12.827C402.587,96.068,408.554,93.852,414.889,92.688z M449.091,160.625
		c2.22-3.271,3.776-6.809,4.674-10.61c0.893-3.801,1.078-7.654,0.554-11.561c-0.634-3.904-1.796-7.336-3.487-10.293
		c-2.11-3.8-4.854-7.071-8.231-9.819c-3.382-2.744-7.184-4.644-11.404-5.701c-4.116-1.16-8.341-1.424-12.666-0.792
		c-4.33,0.634-8.341,2.114-12.038,4.435c-4.749,3.063-8.446,7.126-11.085,12.193s-3.801,10.451-3.482,16.152
		c0.21,4.435,1.317,8.552,3.322,12.353c0.529,0.949,1.033,1.927,1.507,2.93c0.474,1.004,1.028,1.979,1.661,2.93
		c-0.948-1.584-1.846-3.22-2.689-4.91c1.686,3.064,3.851,5.781,6.49,8.156c2.639,2.375,5.597,4.303,8.87,5.779
		c3.377,1.48,6.914,2.296,10.611,2.454c3.692,0.158,7.283-0.34,10.765-1.504c3.377-1.054,6.495-2.638,9.344-4.75
		C444.656,165.957,447.086,163.476,449.091,160.625z"/>
	<path style="fill:#FBFBFB;" d="M539.112,94.826c1.846,1.85,2.771,4.093,2.771,6.731c0,2.746-0.978,5.095-2.928,7.046
		c-1.956,1.956-4.303,2.93-7.049,2.93h-0.791c-4.118,0.213-7.997,1.164-11.638,2.851c-3.644,1.69-6.809,3.935-9.503,6.731
		c-2.691,2.797-4.804,6.044-6.333,9.739c-1.531,3.697-2.297,7.655-2.297,11.877v41.172c0,2.747-0.978,5.068-2.928,6.968
		c-1.956,1.901-4.303,2.851-7.046,2.851c-2.749,0-5.068-0.95-6.969-2.851c-1.901-1.899-2.851-4.22-2.851-6.968V142.73
		c0-6.968,1.292-13.485,3.881-19.558c2.584-6.07,6.096-11.401,10.531-15.993c4.432-4.593,9.658-8.26,15.677-11.006
		c6.019-2.744,12.457-4.222,19.321-4.435h0.948h0.16h0.317C535.018,91.951,537.263,92.98,539.112,94.826z"/>
	<path style="fill:#FBFBFB;" d="M647.074,92.688c8.126-1.371,16.126-0.792,23.99,1.742c7.865,2.534,14.701,6.757,20.508,12.669
		c4.749,4.75,8.418,10.269,11.005,16.548c2.587,6.282,3.826,12.802,3.721,19.558c0,5.384-0.87,10.637-2.612,15.757
		c-1.744,5.122-4.198,9.845-7.366,14.173c-5.173,6.968-11.718,12.273-19.635,15.915c-7.919,3.643-16.153,5.199-24.704,4.672
		c-4.435-0.317-8.765-1.212-12.985-2.693c-4.225-1.477-8.156-3.428-11.798-5.859c-3.642-2.427-6.944-5.278-9.897-8.55
		c-2.958-3.271-5.44-6.914-7.443-10.928c-1.901-3.905-3.3-7.969-4.195-12.193c-0.9-4.222-1.242-8.472-1.03-12.747
		c0.209-4.276,0.923-8.498,2.138-12.67c1.212-4.169,2.981-8.1,5.305-11.797c0.736-1.371,1.636-2.745,2.691-4.118h0.16
		c3.904-5.278,8.655-9.553,14.25-12.827C634.772,96.068,640.739,93.852,647.074,92.688z M681.279,160.625
		c2.217-3.271,3.774-6.809,4.672-10.61c0.895-3.801,1.08-7.654,0.554-11.561c-0.634-3.904-1.796-7.336-3.484-10.293
		c-2.113-3.8-4.856-7.071-8.234-9.819c-3.38-2.744-7.181-4.644-11.401-5.701c-4.118-1.16-8.341-1.424-12.669-0.792
		c-4.33,0.634-8.341,2.114-12.035,4.435c-4.752,3.063-8.448,7.126-11.085,12.193c-2.641,5.067-3.801,10.451-3.484,16.152
		c0.21,4.435,1.319,8.552,3.325,12.353c0.526,0.949,1.03,1.927,1.504,2.93c0.476,1.004,1.03,1.979,1.664,2.93
		c-0.95-1.584-1.848-3.22-2.691-4.91c1.686,3.064,3.851,5.781,6.493,8.156c2.636,2.375,5.595,4.303,8.867,5.779
		c3.377,1.48,6.914,2.296,10.611,2.454c3.694,0.158,7.283-0.34,10.768-1.504c3.377-1.054,6.493-2.638,9.344-4.75
		C676.844,165.957,679.273,163.476,681.279,160.625z"/>
	<path style="fill:#FBFBFB;" d="M774.077,183.903c0,2.64-0.925,4.885-2.774,6.731c-1.848,1.848-4.091,2.877-6.73,3.088h-0.317
		h-0.157h-0.95c-6.864-0.211-13.302-1.687-19.321-4.434c-6.016-2.745-11.259-6.414-15.727-11.006
		c-4.465-4.592-8.002-9.922-10.611-15.995c-2.607-6.069-3.909-12.589-3.909-19.557v-41.173c0-2.744,0.958-5.067,2.873-6.968
		c1.916-1.901,4.258-2.851,7.024-2.851s5.133,0.95,7.101,2.851c1.97,1.901,2.956,4.224,2.956,6.968l-0.16,41.173
		c0,4.223,0.793,8.183,2.375,11.877c1.584,3.697,3.722,6.943,6.415,9.739c2.691,2.799,5.859,5.067,9.501,6.809
		c3.642,1.742,7.523,2.668,11.638,2.771h0.793c2.744,0,5.091,0.978,7.046,2.93C773.099,178.811,774.077,181.159,774.077,183.903z"/>
	<path style="fill:#FBFBFB;" d="M598.162,94.763c1.953,1.954,2.931,4.303,2.931,7.046c0,2.746-0.978,5.067-2.931,6.968
		c-1.953,1.901-4.303,2.85-7.046,2.85h-0.95c-4.33,0-6.774,0.819-10.573,2.456c-3.801,1.638-7.104,3.855-9.897,6.651
		c-2.799,2.797-5.016,6.096-6.652,9.897c-1.639,3.8-2.454,7.866-2.454,12.193l-0.083,1.469h21.219c2.744,0,5.093,0.95,7.049,2.851
		c1.951,1.899,2.928,4.223,2.928,6.968c0,2.746-0.978,5.095-2.928,7.046c-1.956,1.954-4.305,2.93-7.049,2.93h-21.219l0.083,19.657
		c0,2.744-0.95,5.092-2.851,7.046c-1.901,1.953-4.223,2.93-6.967,2.93c-2.746,0-5.096-0.977-7.049-2.93
		c-1.953-1.954-2.928-4.303-2.928-7.046v-40.921c0-6.968,1.347-13.565,4.038-19.795c2.691-6.228,6.333-11.64,10.928-16.232
		c4.592-4.593,9.975-8.235,16.151-10.928c6.176-2.691,11.182-4.038,18.256-4.038h0.95C593.859,91.832,596.209,92.81,598.162,94.763z
		"/>
</g>
<g>
	<path style="fill:#FBFBFB;" d="M379.212,236.338c0,1.814,0.706,3.364,2.122,4.651c1.413,1.286,3.12,1.93,5.115,1.93
		c1.996,0,3.7-0.643,5.115-1.93s2.122-2.837,2.122-4.651v-13.581c0-0.627,0.245-1.163,0.737-1.608
		c0.489-0.445,1.077-0.668,1.767-0.668h0.055c0.69,0,1.27,0.223,1.743,0.668c0.489,0.445,0.734,0.981,0.734,1.608v13.581
		c0,1.814,0.706,3.364,2.122,4.651c1.416,1.286,3.12,1.93,5.115,1.93c2.015,0,3.73-0.643,5.143-1.93
		c1.416-1.286,2.125-2.837,2.125-4.651v-13.581c0-0.627,0.245-1.163,0.734-1.608c0.47-0.445,1.05-0.668,1.74-0.668h0.055
		c0.69,0,1.278,0.223,1.77,0.668c0.47,0.445,0.706,0.981,0.706,1.608v13.581c0,3.084-1.198,5.714-3.592,7.891
		c-2.394,2.177-5.288,3.265-8.68,3.265c-4.046,0-7.292-1.46-9.741-4.379c-2.468,2.919-5.723,4.379-9.769,4.379
		c-3.392,0-6.286-1.088-8.68-3.265c-2.394-2.177-3.592-4.807-3.592-7.891v-13.581c0-0.627,0.245-1.163,0.734-1.608
		c0.492-0.445,1.072-0.668,1.743-0.668h0.082c0.671,0,1.251,0.223,1.74,0.668s0.737,0.981,0.737,1.608V236.338z"/>
	<path style="fill:#FBFBFB;" d="M428.71,236.338c0,1.814,0.706,3.364,2.122,4.651c1.413,1.286,3.12,1.93,5.115,1.93
		c1.996,0,3.7-0.643,5.115-1.93c1.416-1.286,2.122-2.837,2.122-4.651v-13.581c0-0.627,0.245-1.163,0.737-1.608
		c0.489-0.445,1.077-0.668,1.767-0.668h0.055c0.69,0,1.27,0.223,1.743,0.668c0.489,0.445,0.734,0.981,0.734,1.608v13.581
		c0,1.814,0.706,3.364,2.122,4.651s3.12,1.93,5.115,1.93c2.015,0,3.73-0.643,5.143-1.93c1.416-1.286,2.125-2.837,2.125-4.651
		v-13.581c0-0.627,0.245-1.163,0.734-1.608c0.47-0.445,1.05-0.668,1.74-0.668h0.055c0.69,0,1.278,0.223,1.77,0.668
		c0.47,0.445,0.706,0.981,0.706,1.608v13.581c0,3.084-1.198,5.714-3.592,7.891c-2.394,2.177-5.288,3.265-8.68,3.265
		c-4.046,0-7.292-1.46-9.741-4.379c-2.468,2.919-5.723,4.379-9.769,4.379c-3.392,0-6.286-1.088-8.68-3.265
		c-2.394-2.177-3.592-4.807-3.592-7.891v-13.581c0-0.627,0.245-1.163,0.734-1.608c0.492-0.445,1.072-0.668,1.743-0.668h0.082
		c0.671,0,1.251,0.223,1.74,0.668c0.489,0.445,0.737,0.981,0.737,1.608V236.338z"/>
	<path style="fill:#FBFBFB;" d="M478.208,236.338c0,1.814,0.706,3.364,2.122,4.651c1.413,1.286,3.12,1.93,5.115,1.93
		c1.996,0,3.7-0.643,5.115-1.93c1.416-1.286,2.122-2.837,2.122-4.651v-13.581c0-0.627,0.245-1.163,0.737-1.608
		c0.489-0.445,1.077-0.668,1.767-0.668h0.055c0.69,0,1.27,0.223,1.743,0.668c0.489,0.445,0.734,0.981,0.734,1.608v13.581
		c0,1.814,0.706,3.364,2.122,4.651s3.12,1.93,5.115,1.93c2.015,0,3.73-0.643,5.143-1.93c1.416-1.286,2.125-2.837,2.125-4.651
		v-13.581c0-0.627,0.245-1.163,0.734-1.608c0.47-0.445,1.05-0.668,1.74-0.668h0.055c0.69,0,1.278,0.223,1.77,0.668
		c0.47,0.445,0.706,0.981,0.706,1.608v13.581c0,3.084-1.198,5.714-3.593,7.891c-2.394,2.177-5.288,3.265-8.68,3.265
		c-4.046,0-7.292-1.46-9.741-4.379c-2.468,2.919-5.723,4.379-9.769,4.379c-3.392,0-6.286-1.088-8.68-3.265
		c-2.394-2.177-3.593-4.807-3.593-7.891v-13.581c0-0.627,0.245-1.163,0.734-1.608c0.492-0.445,1.072-0.668,1.743-0.668h0.082
		c0.671,0,1.251,0.223,1.74,0.668s0.737,0.981,0.737,1.608V236.338z"/>
	<path style="fill:#FBFBFB;" d="M523.188,244.155c0-1.121,0.44-2.086,1.319-2.894c0.88-0.808,1.946-1.212,3.199-1.212
		c1.251,0,2.325,0.401,3.224,1.201c0.896,0.8,1.347,1.751,1.347,2.856s-0.459,2.075-1.374,2.905
		c-0.918,0.833-1.982,1.251-3.197,1.251c-1.253,0-2.32-0.401-3.199-1.201C523.627,246.264,523.188,245.293,523.188,244.155z"/>
	<path style="fill:#FBFBFB;" d="M551.815,220.481c4.101,0,7.603,1.319,10.505,3.958c2.903,2.639,4.354,5.822,4.354,9.549
		s-1.451,6.91-4.354,9.549c-2.903,2.639-6.404,3.958-10.505,3.958c-4.098,0-7.6-1.319-10.503-3.958
		c-2.903-2.639-4.354-5.822-4.354-9.549s1.451-6.91,4.354-9.549C544.215,221.801,547.717,220.481,551.815,220.481z M551.815,225.107
		c-2.721,0-5.044,0.874-6.965,2.622c-1.905,1.748-2.856,3.859-2.856,6.333c0,2.457,0.951,4.56,2.856,6.308
		c1.921,1.748,4.244,2.622,6.965,2.622c2.721,0,5.036-0.874,6.94-2.622c1.921-1.748,2.883-3.851,2.883-6.308
		c0-2.474-0.962-4.585-2.883-6.333C556.85,225.981,554.536,225.107,551.815,225.107z"/>
	<path style="fill:#FBFBFB;" d="M584.035,220.481c0.69,0,1.281,0.223,1.77,0.668c0.47,0.445,0.706,0.981,0.706,1.608v0.049
		c0,0.627-0.236,1.154-0.706,1.583c-0.489,0.445-1.08,0.668-1.77,0.668h-1.55c-1.707,0-3.156,0.544-4.354,1.633
		c-1.179,1.088-1.778,2.408-1.795,3.958v14.595c0,0.627-0.247,1.154-0.737,1.583c-0.489,0.445-1.069,0.668-1.74,0.668h-0.082
		c-0.671,0-1.251-0.223-1.743-0.668c-0.489-0.429-0.734-0.957-0.734-1.583v-14.595c0.036-2.82,1.124-5.22,3.265-7.199
		c2.177-1.979,4.816-2.969,7.919-2.969H584.035z"/>
	<path style="fill:#FBFBFB;" d="M602.239,210.339c0.69,0,1.281,0.214,1.77,0.643c0.47,0.445,0.706,0.981,0.706,1.608v0.049
		c0,0.627-0.236,1.163-0.706,1.608c-0.489,0.429-1.08,0.643-1.77,0.643h-1.55c-1.707,0-3.155,0.544-4.354,1.633
		c-1.179,1.088-1.778,2.408-1.795,3.958v0.025h7.699c0.69,0,1.281,0.223,1.77,0.668c0.47,0.429,0.706,0.957,0.706,1.583v0.049
		c0,0.627-0.236,1.163-0.706,1.608c-0.489,0.445-1.08,0.668-1.77,0.668h-7.699v20.161c0,0.627-0.247,1.154-0.737,1.583
		c-0.489,0.445-1.069,0.668-1.74,0.668h-0.082c-0.671,0-1.251-0.223-1.743-0.668c-0.489-0.429-0.734-0.957-0.734-1.583v-24.763
		c0.036-2.82,1.124-5.211,3.265-7.174c2.177-1.979,4.816-2.969,7.919-2.969H602.239z"/>
	<path style="fill:#FBFBFB;" d="M622.566,220.481c4.101,0,7.603,1.319,10.505,3.958c2.903,2.639,4.354,5.822,4.354,9.549
		s-1.451,6.91-4.354,9.549c-2.903,2.639-6.404,3.958-10.505,3.958c-4.098,0-7.6-1.319-10.503-3.958
		c-2.903-2.639-4.354-5.822-4.354-9.549s1.451-6.91,4.354-9.549C614.966,221.801,618.467,220.481,622.566,220.481z M622.566,225.107
		c-2.721,0-5.044,0.874-6.965,2.622c-1.905,1.748-2.856,3.859-2.856,6.333c0,2.457,0.951,4.56,2.856,6.308
		c1.921,1.748,4.244,2.622,6.965,2.622c2.721,0,5.036-0.874,6.94-2.622c1.921-1.748,2.883-3.851,2.883-6.308
		c0-2.474-0.962-4.585-2.883-6.333C627.601,225.981,625.287,225.107,622.566,225.107z"/>
	<path style="fill:#FBFBFB;" d="M645.698,210.339c0.671,0,1.251,0.214,1.74,0.643c0.489,0.445,0.737,0.981,0.737,1.608v32.654
		c0,0.627-0.247,1.154-0.737,1.583c-0.489,0.445-1.069,0.668-1.74,0.668h-0.082c-0.671,0-1.251-0.223-1.743-0.668
		c-0.489-0.429-0.734-0.957-0.734-1.583V212.59c0-0.627,0.245-1.163,0.734-1.608c0.492-0.429,1.072-0.643,1.743-0.643H645.698z"/>
	<path style="fill:#FBFBFB;" d="M655.22,244.155c0-1.121,0.44-2.086,1.319-2.894c0.88-0.808,1.946-1.212,3.199-1.212
		c1.251,0,2.325,0.401,3.224,1.201c0.896,0.8,1.347,1.751,1.347,2.856s-0.459,2.075-1.374,2.905
		c-0.918,0.833-1.982,1.251-3.197,1.251c-1.253,0-2.32-0.401-3.199-1.201C655.66,246.264,655.22,245.293,655.22,244.155z"/>
	<path style="fill:#FBFBFB;" d="M688.338,221.124c1.16,0.33,1.743,1.047,1.743,2.152v0.124c0,0.759-0.338,1.361-1.009,1.806
		c-0.69,0.462-1.432,0.577-2.232,0.346c-0.962-0.297-1.957-0.445-2.993-0.445c-2.721,0-5.044,0.874-6.965,2.622
		c-1.905,1.748-2.856,3.859-2.856,6.333c0,2.457,0.951,4.56,2.856,6.308c1.921,1.748,4.244,2.622,6.965,2.622
		c1.036,0,2.031-0.14,2.993-0.421c0.8-0.231,1.542-0.124,2.232,0.322c0.671,0.445,1.009,1.055,1.009,1.831
		c0,1.088-0.583,1.806-1.743,2.152c-1.451,0.412-2.949,0.618-4.491,0.618c-4.098,0-7.6-1.319-10.503-3.958
		c-2.903-2.639-4.354-5.822-4.354-9.549s1.451-6.91,4.354-9.549c2.903-2.639,6.404-3.958,10.503-3.958
		C685.389,220.481,686.887,220.696,688.338,221.124z"/>
	<path style="fill:#FBFBFB;" d="M708.745,220.481c4.101,0,7.603,1.319,10.505,3.958c2.903,2.639,4.354,5.822,4.354,9.549
		s-1.451,6.91-4.354,9.549c-2.903,2.639-6.404,3.958-10.505,3.958c-4.098,0-7.6-1.319-10.503-3.958
		c-2.903-2.639-4.354-5.822-4.354-9.549s1.451-6.91,4.354-9.549C701.144,221.801,704.646,220.481,708.745,220.481z M708.745,225.107
		c-2.721,0-5.044,0.874-6.965,2.622c-1.905,1.748-2.856,3.859-2.856,6.333c0,2.457,0.951,4.56,2.856,6.308
		c1.921,1.748,4.244,2.622,6.965,2.622s5.036-0.874,6.94-2.622c1.921-1.748,2.883-3.851,2.883-6.308
		c0-2.474-0.962-4.585-2.883-6.333C713.78,225.981,711.466,225.107,708.745,225.107z"/>
	<path style="fill:#FBFBFB;" d="M733.265,245.244c0,0.627-0.247,1.154-0.737,1.583c-0.489,0.445-1.069,0.668-1.74,0.668h-0.082
		c-0.671,0-1.251-0.223-1.743-0.668c-0.489-0.429-0.734-0.957-0.734-1.583v-13.606c0-3.068,1.198-5.698,3.593-7.891
		c2.394-2.177,5.288-3.265,8.68-3.265c4.046,0,7.3,1.468,9.769,4.403c2.449-2.936,5.695-4.403,9.741-4.403
		c3.392,0,6.286,1.088,8.68,3.265c2.394,2.193,3.592,4.824,3.592,7.891v13.606c0,0.627-0.236,1.154-0.706,1.583
		c-0.492,0.445-1.08,0.668-1.77,0.668h-0.055c-0.69,0-1.27-0.223-1.74-0.668c-0.489-0.429-0.734-0.957-0.734-1.583v-13.606
		c0-1.814-0.709-3.364-2.125-4.651c-1.413-1.286-3.128-1.93-5.143-1.93c-1.996,0-3.7,0.643-5.115,1.93
		c-1.416,1.286-2.122,2.837-2.122,4.651v13.606c0,0.627-0.245,1.154-0.734,1.583c-0.473,0.445-1.053,0.668-1.743,0.668h-0.055
		c-0.69,0-1.278-0.223-1.767-0.668c-0.492-0.429-0.737-0.957-0.737-1.583v-13.606c0-1.814-0.706-3.364-2.122-4.651
		s-3.12-1.93-5.115-1.93c-1.996,0-3.702,0.643-5.115,1.93c-1.416,1.286-2.122,2.837-2.122,4.651V245.244z"/>
</g>
</svg>
